<svg width="16" height="16" viewBox="0 0 16 16" fill="none" xmlns="http://www.w3.org/2000/svg">
<path fill-rule="evenodd" clip-rule="evenodd" d="M0.275664 0.275664C0.643216 -0.091888 1.23914 -0.091888 1.60669 0.275664L8 6.66898L14.3933 0.275664C14.7609 -0.091888 15.3568 -0.091888 15.7243 0.275664C16.0919 0.643216 16.0919 1.23914 15.7243 1.60669L9.33102 8L15.7243 14.3933C16.0919 14.7609 16.0919 15.3568 15.7243 15.7243C15.3568 16.0919 14.7609 16.0919 14.3933 15.7243L8 9.33102L1.60669 15.7243C1.23914 16.0919 0.643216 16.0919 0.275664 15.7243C-0.091888 15.3568 -0.091888 14.7609 0.275664 14.3933L6.66898 8L0.275664 1.60669C-0.091888 1.23914 -0.091888 0.643216 0.275664 0.275664Z" fill="#FFF"/>
</svg>
