<svg width="24" height="24" viewBox="0 0 24 24" fill="none" xmlns="http://www.w3.org/2000/svg">
<path d="M8.862 20.272V21H3.844V20.272L5.274 20.09C5.46467 20.0553 5.60333 20.0207 5.69 19.986C5.77667 19.934 5.85467 19.8213 5.924 19.648C5.99333 19.4747 6.08867 19.1973 6.21 18.816L11.176 3.32H13.412L18.404 18.816C18.5253 19.1973 18.6207 19.4747 18.69 19.648C18.7593 19.8213 18.8373 19.934 18.924 19.986C19.028 20.0207 19.1667 20.0553 19.34 20.09L20.77 20.272V21H13.594V20.272L15.024 20.09C15.3013 20.0553 15.4487 19.986 15.466 19.882C15.5007 19.7607 15.4227 19.4053 15.232 18.816L14.244 15.592H8.238L7.224 18.816C7.05067 19.4053 6.97267 19.7607 6.99 19.882C7.00733 19.986 7.15467 20.0553 7.432 20.09L8.862 20.272ZM8.55 14.682H13.958L11.28 6.05L8.55 14.682Z" fill="black"/>
</svg>
