<svg width="24" height="24" viewBox="0 0 24 24" fill="none" xmlns="http://www.w3.org/2000/svg">
<path fill-rule="evenodd" clip-rule="evenodd" d="M11.9407 3.82364C11.9812 3.79214 12.0379 3.79214 12.0785 3.82364L19.3758 9.49937C19.4031 9.52062 19.4191 9.5533 19.4191 9.58791V14.2C19.4191 14.6418 19.7773 15 20.2191 15C20.661 15 21.0191 14.6418 21.0191 14.2V9.58791C21.0191 9.05956 20.7752 8.56079 20.3581 8.23641L13.0608 2.56068C12.4425 2.07979 11.5767 2.07979 10.9584 2.56068L3.66105 8.23641C3.24399 8.56079 3.00005 9.05956 3.00005 9.58791V19.1757C3.00005 19.8717 3.27654 20.5392 3.7687 21.0314C4.26086 21.5235 4.92837 21.8 5.62439 21.8H9.27308H14.7461H18.3948C19.0908 21.8 19.7583 21.5235 20.2505 21.0314C20.7426 20.5392 21.0191 19.8717 21.0191 19.1757V17.8C21.0191 17.3582 20.661 17 20.2191 17C19.7773 17 19.4191 17.3582 19.4191 17.8V19.1757C19.4191 19.4473 19.3112 19.7079 19.1191 19.9C18.927 20.0921 18.6665 20.2 18.3948 20.2H15.5461V11.8783C15.5461 11.4365 15.1879 11.0783 14.7461 11.0783H9.27308C8.83125 11.0783 8.47308 11.4365 8.47308 11.8783V20.2H5.62439C5.35272 20.2 5.09217 20.0921 4.90007 19.9C4.70797 19.7079 4.60005 19.4473 4.60005 19.1757V9.58791C4.60005 9.5533 4.61603 9.52062 4.64335 9.49937L11.9407 3.82364ZM13.9461 12.6783V20.2H10.0731V12.6783H13.9461Z" fill="#ffff"/>
</svg>
