<svg width="24" height="24" viewBox="0 0 24 24" fill="none" xmlns="http://www.w3.org/2000/svg">
<path d="M20.1 6.45H16.0605C16.1285 6.10415 16.1627 5.75249 16.1625 5.4C16.1625 3.15403 14.5185 1.5 11.85 1.5C9.72586 1.5 9.17798 3.77517 8.30119 5.193C7.93861 5.77486 7.50459 6.28598 7.08942 6.75173L7.08328 6.75858L7.07723 6.76552C6.35916 7.5847 5.98894 7.875 5.6625 7.875H5.53692C5.26753 7.64288 4.90242 7.5 4.50005 7.5H1.5C0.671578 7.5 0 8.10441 0 8.85V19.65C0 20.3956 0.671578 21 1.5 21H4.5C4.90238 21 5.26748 20.8571 5.53688 20.625H5.66245C7.0072 20.625 8.8095 22.5 11.625 22.5H12.6233C15.555 22.5 17.2546 20.6879 17.308 18.2276C17.8931 17.3926 18.1748 16.3158 18.0573 15.2843C18.2243 14.9565 18.3492 14.609 18.429 14.25H20.1C22.2298 14.25 24 12.4882 24 10.35C24 8.23598 22.214 6.45 20.1 6.45ZM20.1 12H15.8332C16.4349 12.6876 16.5089 14.0074 15.6011 14.8617C16.1274 15.7826 15.6802 17.0003 14.9953 17.3754C15.3011 19.2095 14.523 20.25 12.6234 20.25H11.625C9.49261 20.25 8.00578 18.5666 6 18.3902V10.1049C7.18308 9.96595 8.01403 9.11011 8.76914 8.24883C9.29766 7.65586 9.7875 7.06289 10.2128 6.37969C10.8916 5.28338 11.4378 3.75 11.85 3.75C12.9457 3.75 13.9125 4.1625 13.9125 5.4C13.9125 7.05 12.675 7.88789 12.675 8.7H20.1C20.9637 8.7 21.75 9.47344 21.75 10.35C21.75 11.2395 20.9895 12 20.1 12ZM4.125 18C4.125 18.6213 3.62133 19.125 3 19.125C2.37867 19.125 1.875 18.6213 1.875 18C1.875 17.3787 2.37867 16.875 3 16.875C3.62133 16.875 4.125 17.3787 4.125 18Z" fill="white"/>
</svg>
