
<svg width="24" height="24" viewBox="0 0 24 24" fill="none" xmlns="http://www.w3.org/2000/svg">
<path fill-rule="evenodd" clip-rule="evenodd" d="M2.19995 12C2.19995 11.5581 2.55812 11.2 2.99995 11.2H21C21.4418 11.2 21.7999 11.5581 21.7999 12C21.7999 12.4418 21.4418 12.8 21 12.8H2.99995C2.55812 12.8 2.19995 12.4418 2.19995 12Z" fill="white"/>
<path fill-rule="evenodd" clip-rule="evenodd" d="M2.19995 5.99995C2.19995 5.55812 2.55812 5.19995 2.99995 5.19995H21C21.4418 5.19995 21.7999 5.55812 21.7999 5.99995C21.7999 6.44178 21.4418 6.79995 21 6.79995H2.99995C2.55812 6.79995 2.19995 6.44178 2.19995 5.99995Z" fill="white"/>
<path fill-rule="evenodd" clip-rule="evenodd" d="M2.19995 18C2.19995 17.5581 2.55812 17.2 2.99995 17.2H21C21.4418 17.2 21.7999 17.5581 21.7999 18C21.7999 18.4418 21.4418 18.8 21 18.8H2.99995C2.55812 18.8 2.19995 18.4418 2.19995 18Z" fill="white"/>
</svg>
