<svg width="24" height="24" viewBox="0 0 24 24" fill="none" xmlns="http://www.w3.org/2000/svg">
<path fill-rule="evenodd" clip-rule="evenodd" d="M2.20001 12C2.20001 11.5582 2.55818 11.2 3.00001 11.2H21C21.4418 11.2 21.8 11.5582 21.8 12C21.8 12.4418 21.4418 12.8 21 12.8H3.00001C2.55818 12.8 2.20001 12.4418 2.20001 12Z" fill="#6D6E70"/>
<path fill-rule="evenodd" clip-rule="evenodd" d="M2.20001 6C2.20001 5.55817 2.55818 5.2 3.00001 5.2H21C21.4418 5.2 21.8 5.55817 21.8 6C21.8 6.44182 21.4418 6.8 21 6.8H3.00001C2.55818 6.8 2.20001 6.44182 2.20001 6Z" fill="#6D6E70"/>
<path fill-rule="evenodd" clip-rule="evenodd" d="M2.20001 18C2.20001 17.5582 2.55818 17.2 3.00001 17.2H21C21.4418 17.2 21.8 17.5582 21.8 18C21.8 18.4418 21.4418 18.8 21 18.8H3.00001C2.55818 18.8 2.20001 18.4418 2.20001 18Z" fill="#6D6E70"/>
</svg>
