<svg width="24" height="24" viewBox="0 0 24 24" fill="none" xmlns="http://www.w3.org/2000/svg">
<g id="photo_size_select_actual_24px">
<path id="icon/image/photo_size_select_actual_24px" fill-rule="evenodd" clip-rule="evenodd" d="M3 3H21C22 3 23 4 23 5V19C23 20 22 21 21 21H3C1.9 21 1 20.1 1 19V5C1 4 2 3 3 3ZM20.9426 18.9794C20.9624 18.9618 20.9861 18.9409 21 18.92H20.99V5.08C20.9839 5.07394 20.977 5.06605 20.9694 5.05744C20.9518 5.03761 20.9309 5.01394 20.91 5H3.08L3 5.08V19H20.92C20.9261 18.9939 20.9339 18.987 20.9426 18.9794ZM10 9C10 10.1046 9.10457 11 8 11C6.89543 11 6 10.1046 6 9C6 7.89543 6.89543 7 8 7C9.10457 7 10 7.89543 10 9ZM8.5 12.5L11 15.51L14.5 11L19 17H5L8.5 12.5Z" fill="black" fill-opacity="0.54"/>
</g>
</svg>
